M48
;Layer_Color=9474304
;FILE_FORMAT=2:4
INCH,TZ
;TYPE=PLATED
T1F00S00C0.0276
T2F00S00C0.0315
T3F00S00C0.0335
T4F00S00C0.0354
T5F00S00C0.0394
T6F00S00C0.0402
T7F00S00C0.0531
T8F00S00C0.1378
%
T01
X15369Y2006
X16369
X17369
X22369
X23369
X24369
X27969
X28969
X29969
X33169
X34169
X35169
X24369Y15204
X23369
X22369
X13170Y12606
Y11606
Y10606
X10369
X9369
X8369
Y13006
X9369
X10369
X9369Y20606
X12369
X3769Y25406
Y26406
Y27406
X6370Y27606
Y26606
Y25606
X9169Y26006
Y27006
Y28006
X11969
Y27006
Y26006
X12369Y22606
Y21606
X9369
Y22606
T02
X27969Y10006
X29969
X33169Y9606
Y11606
X15569Y12606
Y10606
X6169Y11606
Y12606
Y13606
Y14606
Y15606
Y16606
Y17606
Y18606
X3169
Y17606
Y16606
Y15606
Y14606
Y13606
Y12606
Y11606
T03
X12369Y3035
X19769
X27397Y12206
X30940
X31397Y14006
Y15606
X34940
Y14006
X35169Y12578
Y9035
X19769Y6578
X12369
T04
X7069Y2106
Y3106
Y4106
Y5106
X10069
Y4106
Y3106
Y2106
X14869Y4506
Y5506
X17869
Y4506
X21769Y4206
Y5206
X24769
Y4206
X27469Y4306
Y5306
X30469
Y4306
X32469
Y5306
X35469
Y4306
Y6306
Y7306
X32469
Y6306
X30469
Y7306
X27469
Y6306
X24769Y6206
Y7206
X24669Y9506
Y10506
Y11506
Y12506
X21669
Y11506
Y10506
Y9506
X21769Y7206
Y6206
X17869Y6506
Y7506
X17069Y9506
Y10506
Y11506
Y12506
X20069
Y11506
Y10506
Y9506
X19869Y15306
Y16306
Y17306
Y18306
X16869
Y17306
Y16306
Y15306
X13669
Y16306
Y17306
Y18306
X10669
Y17306
Y16306
Y15306
X14869Y7506
Y6506
T05
X21784Y19406
X23753
X27400Y16806
X29369
X18553Y22006
X16584
X15769Y26622
Y28591
X19769Y28806
X20769
X21769
X21584Y24806
X23553
X27184Y27606
X29153
X32769Y27406
Y26406
Y25406
X29353Y22206
X27384
T06
X4169Y2006
Y3606
Y5206
X5769Y21006
X4369
X4169Y8406
Y6806
X4369Y22806
X5769
T07
X32556Y18608
Y19606
Y20604
T08
X1969Y1969
X37402
X1969Y29528
X37402
M30
