G04*
G04 #@! TF.GenerationSoftware,Altium Limited,Altium Designer,22.8.2 (66)*
G04*
G04 Layer_Physical_Order=4*
G04 Layer_Color=16711680*
%FSLAX25Y25*%
%MOIN*%
G70*
G04*
G04 #@! TF.SameCoordinates,5F72AED0-B843-43E6-9510-CD6902FEA16C*
G04*
G04*
G04 #@! TF.FilePolarity,Positive*
G04*
G01*
G75*
%ADD16R,0.04724X0.04724*%
%ADD17C,0.04724*%
%ADD18R,0.04724X0.04724*%
%ADD23C,0.06181*%
%ADD24R,0.06102X0.06102*%
%ADD25C,0.06102*%
%ADD26R,0.06102X0.06102*%
%ADD34R,0.08071X0.08071*%
%ADD35C,0.08071*%
%ADD38C,0.01500*%
%ADD39C,0.15748*%
%ADD40C,0.05906*%
%ADD41R,0.05906X0.05906*%
%ADD42C,0.05118*%
%ADD43R,0.05118X0.05118*%
%ADD44R,0.05512X0.05512*%
%ADD45C,0.05512*%
%ADD46C,0.05315*%
%ADD47R,0.05315X0.05315*%
%ADD48R,0.06299X0.06299*%
%ADD49C,0.06299*%
%ADD50R,0.05315X0.05315*%
%ADD51R,0.06299X0.06299*%
%ADD52R,0.05118X0.05118*%
D16*
X131705Y106063D02*
D03*
X93685Y206063D02*
D03*
X123685D02*
D03*
X63705Y256063D02*
D03*
X37685Y254063D02*
D03*
X91685Y280063D02*
D03*
X119685D02*
D03*
D17*
X131705Y116063D02*
D03*
Y126063D02*
D03*
X93685Y130063D02*
D03*
X83685D02*
D03*
X93685Y216063D02*
D03*
Y226063D02*
D03*
X123685Y216063D02*
D03*
Y226063D02*
D03*
X63705Y266063D02*
D03*
Y276063D02*
D03*
X37685Y264063D02*
D03*
Y274063D02*
D03*
X91685Y270063D02*
D03*
Y260063D02*
D03*
X119685Y270063D02*
D03*
Y260063D02*
D03*
X233685Y152043D02*
D03*
X243685D02*
D03*
X341685Y20063D02*
D03*
X351685D02*
D03*
X233685D02*
D03*
X243685D02*
D03*
X289685D02*
D03*
X299685D02*
D03*
X163685D02*
D03*
X173685D02*
D03*
X93685Y106063D02*
D03*
X83685D02*
D03*
D18*
X103685Y130063D02*
D03*
X223685Y152043D02*
D03*
X331685Y20063D02*
D03*
X223685D02*
D03*
X279685D02*
D03*
X153685D02*
D03*
X103685Y106063D02*
D03*
D23*
X43685Y228063D02*
D03*
X57685Y210063D02*
D03*
Y228063D02*
D03*
X43685Y210063D02*
D03*
X41685Y36063D02*
D03*
Y68063D02*
D03*
Y84063D02*
D03*
Y52063D02*
D03*
Y20063D02*
D03*
D24*
X235528Y248063D02*
D03*
X165842Y220063D02*
D03*
X237528Y194063D02*
D03*
X291528Y276063D02*
D03*
X293528Y222063D02*
D03*
X293685Y168063D02*
D03*
D25*
X215843Y248063D02*
D03*
X185528Y220063D02*
D03*
X157685Y285906D02*
D03*
X217843Y194063D02*
D03*
X271843Y276063D02*
D03*
X273843Y222063D02*
D03*
X274000Y168063D02*
D03*
D26*
X157685Y266220D02*
D03*
D34*
X325559Y206043D02*
D03*
D35*
Y196063D02*
D03*
Y186083D02*
D03*
D38*
X81697Y142063D02*
X80697Y142027D01*
X79703Y141920D01*
X78718Y141743D01*
X77749Y141495D01*
X76800Y141180D01*
X75876Y140797D01*
X74982Y140349D01*
X74121Y139839D01*
X73300Y139268D01*
X72521Y138641D01*
X71789Y137959D01*
X71107Y137227D01*
X70480Y136448D01*
X69909Y135627D01*
X69399Y134766D01*
X68951Y133872D01*
X68568Y132948D01*
X68253Y131999D01*
X68005Y131030D01*
X67828Y130045D01*
X67721Y129051D01*
X67685Y128051D01*
X318898Y32850D02*
X331685Y20063D01*
X318898Y32850D02*
Y57276D01*
X324685Y63063D01*
X331685Y70063D02*
Y96063D01*
X324685Y63063D02*
X331685Y70063D01*
X341685Y38942D02*
X354685Y51942D01*
Y53063D01*
X341685Y20063D02*
Y38942D01*
X354685Y53063D02*
X362205Y60583D01*
Y79827D01*
X351685Y90346D02*
X362205Y79827D01*
X300664Y100063D02*
X301982Y101381D01*
X302168D01*
X309402Y108614D02*
Y122063D01*
X299685Y100063D02*
X300664D01*
X302168Y101381D02*
X309402Y108614D01*
X291339Y91716D02*
X299685Y100063D01*
X283465Y103842D02*
Y112567D01*
X273969Y122063D02*
X283465Y112567D01*
X279685Y100063D02*
X283465Y103842D01*
X267717Y70031D02*
Y88095D01*
X279685Y100063D01*
X267717Y70031D02*
X274685Y63063D01*
X291339Y66409D02*
Y91716D01*
Y66409D02*
X304685Y53063D01*
X274685Y63063D02*
X289685Y48063D01*
Y20063D02*
Y48063D01*
X271433Y11811D02*
X279685Y20063D01*
X216220Y11811D02*
X271433D01*
X209685Y18346D02*
X216220Y11811D01*
X209685Y18346D02*
Y18346D01*
X197685Y30346D02*
X209685Y18346D01*
X187685Y40346D02*
X197685Y30346D01*
X187685Y40346D02*
Y46063D01*
X178685Y55063D02*
X187685Y46063D01*
X123685Y50063D02*
X153685Y20063D01*
X123685Y50063D02*
Y65780D01*
X128772Y70866D02*
X142882D01*
X148685Y65063D01*
X123685Y65780D02*
X128772Y70866D01*
X190213Y105063D02*
X200685D01*
X180213Y115063D02*
X190213Y105063D01*
X170685Y115063D02*
X180213D01*
X170685Y105063D02*
X191685Y84063D01*
X232806D01*
X86614Y94488D02*
X120110D01*
X77685Y103417D02*
Y114063D01*
Y103417D02*
X86614Y94488D01*
X120110D02*
X131685Y106063D01*
X183685Y142871D02*
Y168063D01*
X168685Y183063D02*
X183685Y168063D01*
X165685Y136063D02*
X176877D01*
X183685Y142871D01*
X201685Y196063D02*
X208661Y189087D01*
X198685Y173063D02*
X208661Y183039D01*
Y189087D01*
X63705Y266043D02*
X70866Y258882D01*
X57685Y220063D02*
X70866Y233244D01*
Y258882D01*
X25685Y272063D02*
X41024Y287402D01*
X112346D01*
X119685Y280063D01*
X109685Y270063D02*
X119685Y280063D01*
X91685Y270063D02*
X109685D01*
X31685Y166063D02*
X55118Y142630D01*
Y81496D02*
Y142630D01*
X31685Y136063D02*
X49685Y118063D01*
Y92063D02*
Y118063D01*
X41685Y84063D02*
X49685Y92063D01*
X41685Y68063D02*
X52362Y78740D01*
X55118Y81496D01*
X59685Y35433D02*
Y43307D01*
X64055Y31063D02*
X70685D01*
X59685Y35433D02*
X64055Y31063D01*
X50929Y52063D02*
X59685Y43307D01*
X41685Y52063D02*
X50929D01*
X75685Y264063D02*
X91685Y280063D01*
X77685Y114063D02*
X93685Y130063D01*
X67685Y90942D02*
Y128051D01*
Y90942D02*
X68564Y90063D01*
X31685Y186063D02*
X61685D01*
X25685Y182063D02*
X31685Y176063D01*
X93685Y206063D02*
X103685Y196063D01*
X97685Y148063D02*
Y154063D01*
X86685Y183063D02*
X106685D01*
X91685Y142063D02*
X97685Y148063D01*
X81697Y142063D02*
X91685D01*
X75685Y194063D02*
X86685Y183063D01*
X63705Y266043D02*
Y266063D01*
X37685Y264063D02*
X41685Y260063D01*
Y250063D02*
Y260063D01*
X43685Y210063D02*
Y228063D01*
X41685Y250063D02*
X57685Y234063D01*
Y210063D02*
Y220063D01*
Y228063D02*
Y234063D01*
X75685Y194063D02*
Y264063D01*
X25685Y182063D02*
Y272063D01*
X233685Y48063D02*
X237685Y52063D01*
X247685D01*
X309402Y122063D02*
Y151496D01*
X313968Y156063D01*
X349402Y140063D02*
Y156063D01*
X351685Y125779D02*
Y132063D01*
X349402Y134346D02*
X351685Y132063D01*
X349402Y134346D02*
Y140063D01*
X234685Y105063D02*
X246685D01*
X233685Y106063D02*
Y154063D01*
Y106063D02*
X234685Y105063D01*
X103685Y196063D02*
X201685D01*
X87564Y31063D02*
X122968D01*
X123685Y30346D01*
X198685Y163063D02*
X205806D01*
X207685Y161184D01*
X223685Y116063D02*
Y154063D01*
X207685Y112063D02*
Y161184D01*
X70685Y41063D02*
X77564D01*
X87564Y31063D01*
X93685Y106063D02*
Y120063D01*
X145685Y116063D02*
X155685Y126063D01*
X93685Y120063D02*
X103685Y130063D01*
X131705Y106063D02*
X147685D01*
X68564Y90063D02*
X147685D01*
X161685Y104063D01*
X131685Y116063D02*
X145685D01*
X163685Y20063D02*
Y46063D01*
X172685Y55063D01*
X178685D01*
X207968Y65780D02*
X211685Y62063D01*
X217685D01*
X222528Y61220D02*
X223685Y60063D01*
Y20063D02*
Y60063D01*
X233685Y20063D02*
Y48063D01*
X217685Y62063D02*
X218528Y61220D01*
X222528D01*
X147685Y106063D02*
X161685Y120063D01*
Y104063D02*
Y106063D01*
X170685Y115063D01*
X232806Y84063D02*
X233685Y84942D01*
Y106063D01*
X197685Y65780D02*
X207968D01*
X200685Y105063D02*
X207685Y112063D01*
X222685Y115063D02*
X223685Y116063D01*
X216685Y115063D02*
X222685D01*
X97685Y154063D02*
X106685Y163063D01*
X161685Y120063D02*
Y132063D01*
X162685Y163063D02*
X168685D01*
X129685Y130063D02*
X162685Y163063D01*
X103685Y130063D02*
X129685D01*
X161685Y132063D02*
X165685Y136063D01*
D39*
X374016Y295276D02*
D03*
Y19685D02*
D03*
X19685Y295276D02*
D03*
Y19685D02*
D03*
D40*
X200685Y95063D02*
D03*
Y105063D02*
D03*
Y115063D02*
D03*
Y125063D02*
D03*
X170685Y95063D02*
D03*
Y105063D02*
D03*
Y115063D02*
D03*
X246685Y95063D02*
D03*
Y105063D02*
D03*
Y115063D02*
D03*
Y125063D02*
D03*
X216685Y95063D02*
D03*
Y105063D02*
D03*
Y115063D02*
D03*
X136685Y153063D02*
D03*
Y163063D02*
D03*
Y173063D02*
D03*
Y183063D02*
D03*
X106685Y153063D02*
D03*
Y163063D02*
D03*
Y173063D02*
D03*
X198685Y153063D02*
D03*
Y163063D02*
D03*
Y173063D02*
D03*
Y183063D02*
D03*
X168685Y153063D02*
D03*
Y163063D02*
D03*
Y173063D02*
D03*
X354685Y43063D02*
D03*
Y53063D02*
D03*
Y63063D02*
D03*
Y73063D02*
D03*
X324685Y43063D02*
D03*
Y53063D02*
D03*
Y63063D02*
D03*
X100685Y21063D02*
D03*
Y31063D02*
D03*
Y41063D02*
D03*
Y51063D02*
D03*
X70685Y21063D02*
D03*
Y31063D02*
D03*
Y41063D02*
D03*
X304685Y43063D02*
D03*
Y53063D02*
D03*
Y63063D02*
D03*
Y73063D02*
D03*
X274685Y43063D02*
D03*
Y53063D02*
D03*
Y63063D02*
D03*
X178685Y45063D02*
D03*
Y55063D02*
D03*
Y65063D02*
D03*
Y75063D02*
D03*
X148685Y45063D02*
D03*
Y55063D02*
D03*
Y65063D02*
D03*
X247685Y42063D02*
D03*
Y52063D02*
D03*
Y62063D02*
D03*
Y72063D02*
D03*
X217685Y42063D02*
D03*
Y52063D02*
D03*
Y62063D02*
D03*
D41*
X170685Y125063D02*
D03*
X216685D02*
D03*
X106685Y183063D02*
D03*
X168685D02*
D03*
X324685Y73063D02*
D03*
X70685Y51063D02*
D03*
X274685Y73063D02*
D03*
X148685Y75063D02*
D03*
X217685Y72063D02*
D03*
D42*
X155685Y126063D02*
D03*
X299685Y100063D02*
D03*
X331685Y116063D02*
D03*
D43*
X155685Y106063D02*
D03*
X331685Y96063D02*
D03*
D44*
X31685Y186063D02*
D03*
D45*
Y176063D02*
D03*
Y166063D02*
D03*
Y156063D02*
D03*
Y146063D02*
D03*
Y136063D02*
D03*
Y126063D02*
D03*
Y116063D02*
D03*
X61685Y186063D02*
D03*
Y176063D02*
D03*
Y166063D02*
D03*
Y156063D02*
D03*
Y146063D02*
D03*
Y136063D02*
D03*
Y126063D02*
D03*
Y116063D02*
D03*
D46*
X351685Y90346D02*
D03*
X313968Y140063D02*
D03*
X309402Y122063D02*
D03*
X313968Y156063D02*
D03*
X123685Y65780D02*
D03*
X197685D02*
D03*
D47*
X351685Y125779D02*
D03*
X123685Y30346D02*
D03*
X197685D02*
D03*
D48*
X327685Y274063D02*
D03*
D49*
Y264063D02*
D03*
Y254063D02*
D03*
X207685Y288063D02*
D03*
X217685D02*
D03*
D50*
X349402Y140063D02*
D03*
X273969Y122063D02*
D03*
X349402Y156063D02*
D03*
D51*
X197685Y288063D02*
D03*
D52*
X279685Y100063D02*
D03*
M02*
